<svg width="28" height="25" viewBox="0 0 28 25" fill="none" xmlns="http://www.w3.org/2000/svg">
<path d="M20.6403 21.2046C20.6403 19.8305 20.6403 19.1435 20.4707 18.5844C20.0889 17.3257 19.1039 16.3407 17.8452 15.9589C17.2861 15.7893 16.5991 15.7893 15.225 15.7893H10.302C8.92795 15.7893 8.24091 15.7893 7.68186 15.9589C6.42314 16.3407 5.43813 17.3257 5.05631 18.5844C4.88672 19.1435 4.88672 19.8305 4.88672 21.2046M17.1942 7.91251C17.1942 10.3595 15.2105 12.3432 12.7635 12.3432C10.3165 12.3432 8.33282 10.3595 8.33282 7.91251C8.33282 5.4655 10.3165 3.48181 12.7635 3.48181C15.2105 3.48181 17.1942 5.4655 17.1942 7.91251Z" stroke="#B1CEB0" stroke-width="2" stroke-linecap="round" stroke-linejoin="round"/>
<g clip-path="url(#clip0_66_4050)">
<path d="M19.9372 16.25C20.099 16.0428 20.1798 15.9392 20.2823 15.8644C20.3731 15.7982 20.4759 15.7488 20.5855 15.7188C20.7092 15.6848 20.8439 15.6848 21.1135 15.6848H24.6056C25.3776 15.6848 25.7636 15.6848 26.0584 15.8292C26.3178 15.9562 26.5287 16.1589 26.6608 16.4081C26.8111 16.6915 26.8111 17.0625 26.8111 17.8044V20.6305C26.8111 21.3725 26.8111 21.7434 26.6608 22.0268C26.5287 22.2761 26.3178 22.4787 26.0584 22.6057C25.7636 22.7501 25.3776 22.7501 24.6056 22.7501H21.1135C20.8439 22.7501 20.7092 22.7501 20.5855 22.7162C20.4759 22.6861 20.3731 22.6367 20.2823 22.5705C20.1798 22.4958 20.099 22.3921 19.9372 22.1849L17.9523 19.6414C17.8336 19.4894 17.7743 19.4134 17.7515 19.3299C17.7313 19.2562 17.7313 19.1787 17.7515 19.1051C17.7743 19.0216 17.8336 18.9456 17.9523 18.7935L19.9372 16.25Z" fill="white"/>
<path d="M24.5137 17.8927L21.7568 20.5422M21.7568 17.8927L24.5137 20.5422M17.9523 19.6414L19.9372 22.1849C20.099 22.3921 20.1798 22.4958 20.2823 22.5705C20.3731 22.6367 20.4759 22.6861 20.5855 22.7162C20.7092 22.7501 20.8439 22.7501 21.1135 22.7501H24.6056C25.3776 22.7501 25.7636 22.7501 26.0584 22.6057C26.3178 22.4787 26.5287 22.2761 26.6608 22.0268C26.8111 21.7434 26.8111 21.3725 26.8111 20.6305V17.8044C26.8111 17.0625 26.8111 16.6915 26.6608 16.4081C26.5287 16.1589 26.3178 15.9562 26.0584 15.8292C25.7636 15.6848 25.3776 15.6848 24.6056 15.6848H21.1135C20.8439 15.6848 20.7092 15.6848 20.5855 15.7188C20.4759 15.7488 20.3731 15.7982 20.2823 15.8644C20.1798 15.9392 20.099 16.0428 19.9372 16.25L17.9523 18.7935C17.8336 18.9456 17.7743 19.0216 17.7515 19.1051C17.7313 19.1787 17.7313 19.2562 17.7515 19.3299C17.7743 19.4134 17.8336 19.4894 17.9523 19.6414Z" stroke="#B1CEB0" stroke-width="2" stroke-linecap="round" stroke-linejoin="round"/>
</g>
<defs>
<clipPath id="clip0_66_4050">
<rect x="16.7021" y="13.9185" width="11.0275" height="10.598" rx="5.29898" fill="white"/>
</clipPath>
</defs>
</svg>
