<svg width="22" height="22" viewBox="0 0 22 22" fill="none" xmlns="http://www.w3.org/2000/svg">
<path d="M11 15C12.6569 15 14 13.6568 14 12C14 10.3431 12.6569 8.99998 11 8.99998C9.34315 8.99998 8 10.3431 8 12C8 13.6568 9.34315 15 11 15Z" stroke="white" stroke-width="2.5" stroke-linecap="round" stroke-linejoin="round"/>
<path d="M2 9.56505C2 8.9907 2 8.70352 2.07403 8.43905C2.1396 8.20478 2.24737 7.98444 2.39203 7.78886C2.55534 7.56806 2.78202 7.39175 3.23539 7.03912L10.0177 1.764C10.369 1.49075 10.5447 1.35412 10.7387 1.3016C10.9098 1.25526 11.0902 1.25526 11.2613 1.3016C11.4553 1.35412 11.631 1.49075 11.9823 1.764L18.7646 7.03913C19.218 7.39175 19.4447 7.56806 19.608 7.78886C19.7526 7.98444 19.8604 8.20478 19.926 8.43905C20 8.70352 20 8.9907 20 9.56505V16.8C20 17.9201 20 18.4801 19.782 18.908C19.5903 19.2843 19.2843 19.5903 18.908 19.782C18.4802 20 17.9201 20 16.8 20H5.2C4.07989 20 3.51984 20 3.09202 19.782C2.71569 19.5903 2.40973 19.2843 2.21799 18.908C2 18.4801 2 17.9201 2 16.8V9.56505Z" stroke="white" stroke-width="2.5" stroke-linecap="round" stroke-linejoin="round"/>
</svg>
