<svg width="150" height="150" viewBox="0 0 150 150" fill="none" xmlns="http://www.w3.org/2000/svg">
<g clip-path="url(#clip0_62_5091)">
<path d="M150 0H0V150H150V0Z" fill="#F5F5F5"/>
<g filter="url(#filter0_d_62_5091)">
<path d="M0 20C0 8.9543 8.95431 0 20 0H130C141.046 0 150 8.95431 150 20V130C150 141.046 141.046 150 130 150H20C8.9543 150 0 141.046 0 130V20Z" fill="#B1CEB0"/>
</g>
<path d="M75 100.64C85.1252 100.64 93.3333 92.7534 93.3333 83.0244C93.3333 73.2955 85.1252 65.4086 75 65.4086C64.8748 65.4086 56.6667 73.2955 56.6667 83.0244C56.6667 92.7534 64.8748 100.64 75 100.64Z" stroke="white" stroke-width="10" stroke-linecap="round" stroke-linejoin="round"/>
<path d="M20 68.7266C20 65.354 20 63.6678 20.4524 62.1148C20.8531 60.7392 21.5117 59.4454 22.3957 58.2969C23.3937 57.0004 24.779 55.9651 27.5496 53.8945L68.997 22.9193C71.144 21.3147 72.2175 20.5125 73.4029 20.2041C74.4488 19.932 75.5512 19.932 76.5971 20.2041C77.7825 20.5125 78.856 21.3147 81.003 22.9193L122.45 53.8945C125.221 55.9651 126.606 57.0004 127.604 58.2969C128.488 59.4454 129.147 60.7392 129.548 62.1148C130 63.6678 130 65.354 130 68.7266V111.21C130 117.787 130 121.076 128.668 123.588C127.496 125.797 125.626 127.594 123.327 128.72C120.712 130 117.29 130 110.444 130H39.5556C32.7105 130 29.2879 130 26.6734 128.72C24.3737 127.594 22.5039 125.797 21.3321 123.588C20 121.076 20 117.787 20 111.21V68.7266Z" stroke="white" stroke-width="10" stroke-linecap="round" stroke-linejoin="round"/>
<path d="M50 59H100V118H50V59Z" fill="#B1CEB0"/>
<path d="M70.7827 63.86H74.8627V67.34H70.7827V81.74H66.9727V53.72H70.7827V63.86ZM55.6627 54.92C59.7727 54.92 63.1327 57.56 63.1327 64.4V68.69C63.1327 75.53 59.7727 78.17 55.6627 78.17C51.4927 78.17 48.1327 75.53 48.1327 68.69V64.4C48.1327 57.56 51.4927 54.92 55.6627 54.92ZM59.2927 68.69V64.4C59.2927 59.9 57.6127 58.4 55.6627 58.4C53.6227 58.4 51.9727 59.9 51.9727 64.4V68.69C51.9727 73.19 53.6227 74.69 55.6627 74.69C57.6127 74.69 59.2927 73.19 59.2927 68.69ZM91.64 64.37V66.38H102.92V69.62H76.52V66.38H87.8V64.37H87.29C82.67 64.37 79.46 62.63 79.46 59.12C79.46 55.64 82.67 53.96 87.29 53.96H92.18C96.77 53.96 100.01 55.64 100.01 59.12C100.01 62.63 96.77 64.37 92.18 64.37H91.64ZM83.27 59.15C83.27 60.53 84.98 61.22 88.01 61.22H91.46C94.46 61.22 96.17 60.53 96.17 59.15C96.17 57.8 94.46 57.14 91.46 57.14H88.01C84.98 57.14 83.27 57.8 83.27 59.15ZM86.39 71.66H93.05C97.55 71.66 100.16 73.88 100.16 76.85C100.16 79.85 97.55 82.04 93.05 82.04H86.39C81.92 82.04 79.31 79.85 79.31 76.85C79.31 73.88 81.92 71.66 86.39 71.66ZM87.11 78.71H92.36C95.15 78.71 96.32 77.99 96.32 76.82C96.32 75.65 95.15 74.96 92.36 74.96H87.11C84.32 74.96 83.12 75.65 83.12 76.82C83.12 77.99 84.32 78.71 87.11 78.71ZM70.8127 96.86H74.8627V100.34H70.8127V114.74H66.9727V86.72H70.8127V96.86ZM52.4527 106.79H54.5527C57.4327 106.79 60.9427 106.49 64.4227 105.98L64.8427 109.37C61.5127 109.94 57.6427 110.3 53.8927 110.3H48.5827V88.64H62.5927V92.15H52.4527V106.79ZM91.64 97.37V99.38H102.92V102.62H76.52V99.38H87.8V97.37H87.29C82.67 97.37 79.46 95.63 79.46 92.12C79.46 88.64 82.67 86.96 87.29 86.96H92.18C96.77 86.96 100.01 88.64 100.01 92.12C100.01 95.63 96.77 97.37 92.18 97.37H91.64ZM83.27 92.15C83.27 93.53 84.98 94.22 88.01 94.22H91.46C94.46 94.22 96.17 93.53 96.17 92.15C96.17 90.8 94.46 90.14 91.46 90.14H88.01C84.98 90.14 83.27 90.8 83.27 92.15ZM86.39 104.66H93.05C97.55 104.66 100.16 106.88 100.16 109.85C100.16 112.85 97.55 115.04 93.05 115.04H86.39C81.92 115.04 79.31 112.85 79.31 109.85C79.31 106.88 81.92 104.66 86.39 104.66ZM87.11 111.71H92.36C95.15 111.71 96.32 110.99 96.32 109.82C96.32 108.65 95.15 107.96 92.36 107.96H87.11C84.32 107.96 83.12 108.65 83.12 109.82C83.12 110.99 84.32 111.71 87.11 111.71Z" fill="#FAFAFA"/>
</g>
<defs>
<filter id="filter0_d_62_5091" x="-4" y="0" width="158" height="158" filterUnits="userSpaceOnUse" color-interpolation-filters="sRGB">
<feFlood flood-opacity="0" result="BackgroundImageFix"/>
<feColorMatrix in="SourceAlpha" type="matrix" values="0 0 0 0 0 0 0 0 0 0 0 0 0 0 0 0 0 0 127 0" result="hardAlpha"/>
<feOffset dy="4"/>
<feGaussianBlur stdDeviation="2"/>
<feComposite in2="hardAlpha" operator="out"/>
<feColorMatrix type="matrix" values="0 0 0 0 0 0 0 0 0 0 0 0 0 0 0 0 0 0 0.25 0"/>
<feBlend mode="normal" in2="BackgroundImageFix" result="effect1_dropShadow_62_5091"/>
<feBlend mode="normal" in="SourceGraphic" in2="effect1_dropShadow_62_5091" result="shape"/>
</filter>
<clipPath id="clip0_62_5091">
<rect width="150" height="150" fill="white"/>
</clipPath>
</defs>
</svg>
