<svg width="28" height="30" viewBox="0 0 28 30" fill="none" xmlns="http://www.w3.org/2000/svg">
<path d="M8.75877 12.4918V10.0947C8.75877 6.78507 11.2568 4.10205 14.3382 4.10205C16.6261 4.10205 18.5924 5.58116 19.4533 7.69766M14.3382 17.8852V20.2823M10.7674 25.6757H17.909C19.7838 25.6757 20.7213 25.6757 21.4374 25.2838C22.0673 24.9391 22.5794 24.389 22.9003 23.7125C23.2652 22.9433 23.2652 21.9365 23.2652 19.9227V18.2448C23.2652 16.2311 23.2652 15.2242 22.9003 14.4551C22.5794 13.7785 22.0673 13.2284 21.4374 12.8837C20.7213 12.4918 19.7838 12.4918 17.909 12.4918H10.7674C8.8925 12.4918 7.95508 12.4918 7.23898 12.8837C6.60908 13.2284 6.09695 13.7785 5.776 14.4551C5.41113 15.2242 5.41113 16.2311 5.41113 18.2448V19.9227C5.41113 21.9365 5.41113 22.9433 5.776 23.7125C6.09695 24.389 6.60908 24.9391 7.23898 25.2838C7.95508 25.6757 8.8925 25.6757 10.7674 25.6757Z" stroke="#B1CEB0" stroke-width="2.5" stroke-linecap="round" stroke-linejoin="round"/>
</svg>
