<svg width="26" height="24" viewBox="0 0 26 24" fill="none" xmlns="http://www.w3.org/2000/svg">
<path d="M14 11H8M10 15H8M16 7H8M20 6.8V17.2C20 18.8802 20 19.7202 19.673 20.362C19.3854 20.9265 18.9265 21.3854 18.362 21.673C17.7202 22 16.8802 22 15.2 22H8.8C7.11984 22 6.27976 22 5.63803 21.673C5.07354 21.3854 4.6146 20.9265 4.32698 20.362C4 19.7202 4 18.8802 4 17.2V6.8C4 5.11984 4 4.27976 4.32698 3.63803C4.6146 3.07354 5.07354 2.6146 5.63803 2.32698C6.27976 2 7.11984 2 8.8 2H15.2C16.8802 2 17.7202 2 18.362 2.32698C18.9265 2.6146 19.3854 3.07354 19.673 3.63803C20 4.27976 20 5.11984 20 6.8Z" stroke="#B1CEB0" stroke-width="2" stroke-linecap="round" stroke-linejoin="round"/>
<g clip-path="url(#clip0_66_3885)">
<path d="M13.0899 15.6339C13.1809 15.3972 13.2264 15.2789 13.2858 15.1682C13.3386 15.0699 13.3995 14.9762 13.4679 14.888C13.5449 14.7888 13.6346 14.6991 13.8138 14.5199L21.3337 7.00004C22.0701 6.26366 23.264 6.26366 24.0003 7.00004C24.7367 7.73642 24.7367 8.93033 24.0003 9.66671L16.4805 17.1865C16.3012 17.3658 16.2116 17.4554 16.1124 17.5324C16.0242 17.6009 15.9305 17.6618 15.8321 17.7146C15.7214 17.774 15.6031 17.8195 15.3665 17.9105L11.667 19.3334L13.0899 15.6339Z" fill="white"/>
<path d="M13.0391 15.766C13.1373 15.5107 13.1863 15.3831 13.2706 15.3246C13.3441 15.2735 13.4352 15.2542 13.5232 15.271C13.6239 15.2902 13.7206 15.3869 13.914 15.5803L15.42 17.0864C15.6134 17.2798 15.7101 17.3765 15.7294 17.4772C15.7462 17.5652 15.7268 17.6562 15.6758 17.7298C15.6173 17.814 15.4897 17.8631 15.2344 17.9613L11.667 19.3334L13.0391 15.766Z" fill="white"/>
<path d="M11.667 19.3334L15.3665 17.9105C15.6031 17.8195 15.7214 17.774 15.8321 17.7146C15.9305 17.6618 16.0242 17.6009 16.1124 17.5324C16.2116 17.4554 16.3012 17.3658 16.4805 17.1865L24.0003 9.66671C24.7367 8.93033 24.7367 7.73642 24.0003 7.00004C23.264 6.26366 22.0701 6.26366 21.3337 7.00004L13.8138 14.5199C13.6346 14.6991 13.5449 14.7888 13.4679 14.888C13.3995 14.9762 13.3386 15.0699 13.2858 15.1682C13.2264 15.2789 13.1809 15.3972 13.0899 15.6339L11.667 19.3334ZM11.667 19.3334L13.0391 15.766C13.1373 15.5107 13.1863 15.3831 13.2706 15.3246C13.3441 15.2735 13.4352 15.2542 13.5232 15.271C13.6239 15.2902 13.7206 15.3869 13.914 15.5803L15.42 17.0864C15.6134 17.2798 15.7101 17.3765 15.7294 17.4772C15.7462 17.5652 15.7268 17.6562 15.6758 17.7298C15.6173 17.814 15.4897 17.8631 15.2344 17.9613L11.667 19.3334Z" stroke="#B1CEB0" stroke-width="2" stroke-linecap="round" stroke-linejoin="round"/>
</g>
<defs>
<clipPath id="clip0_66_3885">
<rect width="16" height="16" fill="white" transform="translate(10 5)"/>
</clipPath>
</defs>
</svg>
