<svg width="69" height="69" viewBox="0 0 69 69" fill="none" xmlns="http://www.w3.org/2000/svg">
<g clip-path="url(#clip0_62_5098)">
<path d="M69 0H0V69H69V0Z" fill="#F5F5F5"/>
<path d="M0 9.2C0 4.11898 4.11898 0 9.2 0H59.8C64.8812 0 69 4.11898 69 9.2V59.8C69 64.8812 64.8812 69 59.8 69H9.2C4.11898 69 0 64.8812 0 59.8V9.2Z" fill="#B1CEB0"/>
<path d="M57 57.8085C57 54.1794 57 52.3648 56.5263 50.8883C55.4599 47.5638 52.7087 44.9623 49.1931 43.9538C47.6317 43.5059 45.7128 43.5059 41.875 43.5059H28.125C24.2872 43.5059 22.3683 43.5059 20.8069 43.9538C17.2913 44.9623 14.5401 47.5638 13.4737 50.8883C13 52.3648 13 54.1794 13 57.8085M47.375 22.7021C47.375 29.165 41.8345 34.4043 35 34.4043C28.1655 34.4043 22.625 29.165 22.625 22.7021C22.625 16.2392 28.1655 11 35 11C41.8345 11 47.375 16.2392 47.375 22.7021Z" stroke="white" stroke-width="4" stroke-linecap="round" stroke-linejoin="round"/>
</g>
<defs>
<clipPath id="clip0_62_5098">
<rect width="69" height="69" fill="white"/>
</clipPath>
</defs>
</svg>
