<svg width="28" height="25" viewBox="0 0 28 25" fill="none" xmlns="http://www.w3.org/2000/svg">
<path d="M20.0779 20.927C20.0779 19.5922 20.0779 18.9248 19.9132 18.3817C19.5422 17.1589 18.5854 16.2021 17.3626 15.8312C16.8196 15.6664 16.1521 15.6664 14.8173 15.6664H10.035C8.70018 15.6664 8.03277 15.6664 7.48969 15.8312C6.26694 16.2021 5.31007 17.1589 4.93916 18.3817C4.77441 18.9248 4.77441 19.5922 4.77441 20.927M16.7303 8.01468C16.7303 10.3918 14.8033 12.3188 12.4262 12.3188C10.0491 12.3188 8.12205 10.3918 8.12205 8.01468C8.12205 5.63759 10.0491 3.71057 12.4262 3.71057C14.8033 3.71057 16.7303 5.63759 16.7303 8.01468Z" stroke="#B1CEB0" stroke-width="2" stroke-linecap="round" stroke-linejoin="round"/>
<g clip-path="url(#clip0_28_3113)">
<path d="M17.8505 19.9414C17.9201 19.7548 17.9549 19.6615 18.0004 19.5742C18.0408 19.4966 18.0874 19.4227 18.1397 19.3531C18.1987 19.2748 18.2673 19.2041 18.4044 19.0627L24.1584 13.1312C24.7219 12.5503 25.6354 12.5503 26.1989 13.1312C26.7623 13.712 26.7623 14.6538 26.1989 15.2346L20.4449 21.1662C20.3077 21.3076 20.2391 21.3783 20.1632 21.439C20.0957 21.493 20.024 21.541 19.9488 21.5827C19.8641 21.6295 19.7736 21.6654 19.5925 21.7372L16.7617 22.8596L17.8505 19.9414Z" fill="white"/>
<path d="M17.8116 20.0457C17.8867 19.8443 17.9243 19.7436 17.9887 19.6975C18.045 19.6572 18.1147 19.642 18.182 19.6552C18.2591 19.6704 18.3331 19.7467 18.4811 19.8992L19.6335 21.0872C19.7814 21.2397 19.8554 21.316 19.8701 21.3954C19.883 21.4649 19.8682 21.5367 19.8291 21.5947C19.7844 21.6611 19.6867 21.6999 19.4914 21.7773L16.7617 22.8596L17.8116 20.0457Z" fill="white"/>
<path d="M16.7617 22.8596L19.5925 21.7372C19.7736 21.6654 19.8641 21.6295 19.9488 21.5827C20.024 21.541 20.0957 21.493 20.1632 21.439C20.2391 21.3783 20.3077 21.3076 20.4449 21.1662L26.1989 15.2346C26.7623 14.6538 26.7623 13.712 26.1989 13.1312C25.6354 12.5503 24.7219 12.5503 24.1584 13.1312L18.4044 19.0627C18.2673 19.2041 18.1987 19.2748 18.1397 19.3531C18.0874 19.4227 18.0408 19.4966 18.0004 19.5742C17.9549 19.6615 17.9201 19.7548 17.8505 19.9414L16.7617 22.8596ZM16.7617 22.8596L17.8116 20.0457C17.8867 19.8443 17.9243 19.7436 17.9887 19.6975C18.045 19.6572 18.1147 19.642 18.182 19.6552C18.2591 19.6704 18.3331 19.7467 18.4811 19.8992L19.6335 21.0872C19.7814 21.2397 19.8554 21.316 19.8701 21.3954C19.883 21.4649 19.8682 21.5367 19.8291 21.5947C19.7844 21.6611 19.6867 21.6999 19.4914 21.7773L16.7617 22.8596Z" stroke="#B1CEB0" stroke-width="2" stroke-linecap="round" stroke-linejoin="round"/>
</g>
<defs>
<clipPath id="clip0_28_3113">
<rect x="15.4863" y="11.5536" width="12.2428" height="12.6206" rx="6.1214" fill="white"/>
</clipPath>
</defs>
</svg>
